<?xml version="1.0" encoding="UTF-8" standalone="no"?>
<svg id="svg2" xmlns:rdf="http://www.w3.org/1999/02/22-rdf-syntax-ns#" xmlns="http://www.w3.org/2000/svg" viewBox="259 139 362 257.34727" height="13.751cm" width="19cm" version="1.1" xmlns:cc="http://creativecommons.org/ns#" xmlns:dc="http://purl.org/dc/elements/1.1/">
 <metadata id="metadata76">
  <rdf:RDF>
   <cc:Work rdf:about="">
    <dc:format>image/svg+xml</dc:format>
    <dc:type rdf:resource="http://purl.org/dc/dcmitype/StillImage"/>
   </cc:Work>
  </rdf:RDF>
 </metadata>
 <g id="g4" transform="translate(0 -2.3264)">
  <path id="ellipse6" fill="#fff" d="m320 170a30 30 0 0 1 -30 30 30 30 0 0 1 -30 -30 30 30 0 0 1 30 -30 30 30 0 0 1 30 30z"/>
  <path id="ellipse8" d="m320 170a30 30 0 0 1 -30 30 30 30 0 0 1 -30 -30 30 30 0 0 1 30 -30 30 30 0 0 1 30 30z" stroke="#000" stroke-width="2" fill="none"/>
 </g>
 <g id="text10">
  <path id="path44" style="" d="m290.98 169.6q-2.9501 0-4.0878 0.67468-1.1377 0.67469-1.1377 2.3019 0 1.2964 0.84667 2.0637 0.85989 0.75407 2.3283 0.75407 2.0241 0 3.2411-1.4288 1.2303-1.442 1.2303-3.8232v-0.54239h-2.4209zm4.8551-1.0054v8.4534h-2.4342v-2.249q-0.83343 1.3494-2.077 1.9976-1.2436 0.635-3.0427 0.635-2.2754 0-3.6248-1.27-1.3361-1.2832-1.3361-3.4264 0-2.5003 1.6669-3.7703 1.6801-1.27 5.0006-1.27h3.4131v-0.23812q0-1.6801-1.1112-2.5929-1.098-0.92604-3.0956-0.92604-1.27 0-2.4738 0.30427t-2.3151 0.91281v-2.249q1.3361-0.51594 2.5929-0.76729 1.2568-0.26459 2.4474-0.26459 3.2147 0 4.8022 1.6669t1.5875 5.0535z"/>
 </g>
 <g id="g14" transform="translate(0 -2.3264)">
  <path id="ellipse16" fill="#fff" d="m320 270a30 30 0 0 1 -30 30 30 30 0 0 1 -30 -30 30 30 0 0 1 30 -30 30 30 0 0 1 30 30z"/>
  <path id="ellipse18" d="m320 270a30 30 0 0 1 -30 30 30 30 0 0 1 -30 -30 30 30 0 0 1 30 -30 30 30 0 0 1 30 30z" stroke="#000" stroke-width="2" fill="none"/>
 </g>
 <g id="g20" transform="translate(0 -2.3264)">
  <path id="rect22" fill="#fff" d="m420 240h200v60h-200z"/>
  <path id="rect24" d="m420 240h200v60h-200z" stroke="#000" stroke-width="2" fill="none"/>
 </g>
 <g id="text26">
  <path id="path51" style="" d="m294.59 269.65q0-2.6855-1.1112-4.2069-1.098-1.5346-3.0295-1.5346-1.9314 0-3.0427 1.5346-1.098 1.5214-1.098 4.2069t1.098 4.2201q1.1112 1.5214 3.0427 1.5214t3.0295-1.5214q1.1112-1.5346 1.1112-4.2201zm-8.2814-5.1726q0.76729-1.3229 1.9314-1.9579 1.1774-0.64823 2.8046-0.64823 2.6988 0 4.3788 2.1431 1.6933 2.1431 1.6933 5.6356t-1.6933 5.6356q-1.6801 2.1431-4.3788 2.1431-1.6272 0-2.8046-0.635-1.1642-0.64823-1.9314-1.9711v2.2225h-2.4474v-20.585h2.4474v8.0169z"/>
 </g>
 <g id="text30">
  <path id="path54" style="" d="m465.39 268.11v8.9429h-2.4342v-8.8635q0-2.1034-0.8202-3.1485-0.82021-1.0451-2.4606-1.0451-1.9711 0-3.1088 1.2568t-1.1377 3.4264v8.3741h-2.4474v-20.585h2.4474v8.0698q0.87312-1.3362 2.0505-1.9976 1.1906-0.66146 2.7384-0.66146 2.5532 0 3.8629 1.5875 1.3097 1.5743 1.3097 4.6434z"/>
  <path id="path56" style="" d="m482.95 269.03v1.1906h-11.192q0.15875 2.5135 1.5081 3.8365 1.3626 1.3097 3.7835 1.3097 1.4023 0 2.712-0.34395 1.3229-0.34396 2.6194-1.0319v2.3019q-1.3097 0.55563-2.6855 0.84667t-2.7914 0.29104q-3.5454 0-5.6224-2.0638-2.0638-2.0637-2.0638-5.5827 0-3.638 1.9579-5.7679 1.9711-2.1431 5.3049-2.1431 2.9898 0 4.7228 1.9315 1.7462 1.9182 1.7462 5.2255zm-2.4342-0.71437q-0.0265-1.9976-1.1245-3.1882-1.0848-1.1906-2.884-1.1906-2.0373 0-3.2676 1.1509-1.2171 1.1509-1.4023 3.2411l8.6783-0.0132z"/>
  <path id="path58" style="" d="m486.94 256.46h2.4342v20.585h-2.4342v-20.585z"/>
  <path id="path60" style="" d="m494.45 256.46h2.4342v20.585h-2.4342v-20.585z"/>
  <path id="path62" style="" d="m507.71 263.94q-1.9579 0-3.0956 1.5346-1.1377 1.5214-1.1377 4.1804 0 2.6591 1.1245 4.1936 1.1377 1.5214 3.1088 1.5214 1.9447 0 3.0824-1.5346t1.1377-4.1804q0-2.6326-1.1377-4.1672-1.1377-1.5478-3.0824-1.5478zm0-2.0638q3.175 0 4.9874 2.0638 1.8124 2.0637 1.8124 5.715 0 3.638-1.8124 5.715-1.8124 2.0638-4.9874 2.0638-3.1882 0-5.0006-2.0638-1.7992-2.077-1.7992-5.715 0-3.6512 1.7992-5.715 1.8124-2.0638 5.0006-2.0638z"/>
  <path id="path64" style="" d="m525.41 262.23h2.5797l4.6302 12.435 4.6302-12.435h2.5797l-5.5562 14.817h-3.3073l-5.5562-14.817z"/>
  <path id="path66" style="" d="m543.19 262.23h2.4342v14.817h-2.4342v-14.817zm0-5.7679h2.4342v3.0824h-2.4342v-3.0824z"/>
  <path id="path68" style="" d="m550.7 256.46h2.4342v20.585h-2.4342v-20.585z"/>
  <path id="path70" style="" d="m564.95 269.6q-2.9501 0-4.0878 0.67469t-1.1377 2.3019q0 1.2965 0.84666 2.0638 0.8599 0.75406 2.3283 0.75406 2.0241 0 3.2412-1.4288 1.2303-1.442 1.2303-3.8232v-0.5424h-2.4209zm4.8551-1.0054v8.4534h-2.4342v-2.249q-0.83344 1.3494-2.077 1.9976-1.2435 0.635-3.0427 0.635-2.2754 0-3.6248-1.27-1.3362-1.2832-1.3362-3.4264 0-2.5003 1.6669-3.7703 1.6801-1.27 5.0006-1.27h3.4131v-0.23813q0-1.6801-1.1112-2.5929-1.098-0.92604-3.0956-0.92604-1.27 0-2.4738 0.30427-1.2039 0.30427-2.3151 0.91281v-2.249q1.3362-0.51593 2.5929-0.76729 1.2568-0.26458 2.4474-0.26458 3.2147 0 4.8022 1.6669t1.5875 5.0535zm-4.445-13.216h2.6326l-4.3127 4.9742h-2.0241l3.7042-4.9742z"/>
  <path id="path72" style="" d="m584.58 269.47q0-2.6458-1.098-4.101-1.0848-1.4552-3.0559-1.4552-1.9579 0-3.0559 1.4552-1.0848 1.4552-1.0848 4.101 0 2.6326 1.0848 4.0878 1.098 1.4552 3.0559 1.4552 1.9711 0 3.0559-1.4552 1.098-1.4552 1.098-4.0878zm2.4342 5.7414q0 3.7835-1.6801 5.6224-1.6801 1.8521-5.1461 1.8521-1.2832 0-2.4209-0.19843-1.1377-0.18521-2.2093-0.58209v-2.368q1.0716 0.58208 2.1167 0.85989t2.1299 0.27781q2.3945 0 3.5851-1.2568 1.1906-1.2435 1.1906-3.7703v-1.2039q-0.75406 1.3097-1.9314 1.9579-1.1774 0.64823-2.8178 0.64823-2.7252 0-4.3921-2.077t-1.6669-5.5033q0-3.4396 1.6669-5.5166t4.3921-2.077q1.6404 0 2.8178 0.64823t1.9314 1.9579v-2.249h2.4342v12.978z"/>
 </g>
 <g id="g34" transform="translate(0 -2.3264)">
  <path id="ellipse36" fill="#fff" d="m320 370a30 30 0 0 1 -30 30 30 30 0 0 1 -30 -30 30 30 0 0 1 30 -30 30 30 0 0 1 30 30z"/>
  <path id="ellipse38" d="m320 370a30 30 0 0 1 -30 30 30 30 0 0 1 -30 -30 30 30 0 0 1 30 -30 30 30 0 0 1 30 30z" stroke="#000" stroke-width="2" fill="none"/>
 </g>
 <g id="text40">
  <path id="path77" style="" d="m295.75 362.8v2.2754q-1.0319-0.56885-2.077-0.84666-1.0319-0.29104-2.0902-0.29104-2.368 0-3.6777 1.5081-1.3097 1.4949-1.3097 4.2069t1.3097 4.2201q1.3097 1.4949 3.6777 1.4949 1.0583 0 2.0902-0.27781 1.0451-0.29104 2.077-0.85989v2.249q-1.0186 0.47625-2.1167 0.71438-1.0848 0.23812-2.3151 0.23812-3.347 0-5.3181-2.1034-1.9712-2.1034-1.9712-5.6753 0-3.6248 1.9844-5.7018 1.9976-2.077 5.4636-2.077 1.1245 0 2.196 0.23812 1.0716 0.2249 2.077 0.68792z"/>
 </g>
 <g id="g44" stroke="#000" stroke-width="2" fill="none" transform="translate(0 -2.3264)">
  <path id="line46" d="m311.9 191.9 53.039 53.039"/>
  <path id="polyline48" d="m355.91 242.98 10.606 3.535-3.535-10.606"/>
 </g>
 <g id="g50" stroke="#000" stroke-width="2" fill="none" transform="translate(0 -2.3264)">
  <path id="line52" d="m320.98 270h33.565"/>
  <path id="polyline54" d="m346.78 275 10-5-10-5"/>
 </g>
 <g id="g56" stroke="#000" stroke-width="2" fill="none" transform="translate(0 -2.3264)">
  <path id="line58" d="m311.9 348.1 53.039-53.039"/>
  <path id="polyline60" d="m362.98 304.09 3.535-10.606-10.606 3.535"/>
 </g>
 <g id="g62" transform="translate(0 -2.3264)">
  <path id="ellipse64" fill="#fff" d="m420 270a30 30 0 0 1 -30 30 30 30 0 0 1 -30 -30 30 30 0 0 1 30 -30 30 30 0 0 1 30 30z"/>
  <path id="ellipse66" d="m420 270a30 30 0 0 1 -30 30 30 30 0 0 1 -30 -30 30 30 0 0 1 30 -30 30 30 0 0 1 30 30z" stroke="#000" stroke-width="2" fill="none"/>
 </g>
 <g id="text68">
  <path id="path88" style="" d="m392.37 266.4q1.9182 0.4101 2.9898 1.7066 1.0848 1.2965 1.0848 3.2014 0 2.9236-2.0108 4.5244-2.0108 1.6007-5.715 1.6007-1.2435 0-2.5664-0.25135-1.3097-0.23813-2.712-0.72761v-2.5797q1.1112 0.64823 2.4342 0.97896 1.3229 0.33072 2.7649 0.33072 2.5135 0 3.8232-0.99218 1.3229-0.99219 1.3229-2.884 0-1.7462-1.2303-2.7252-1.2171-0.99219-3.3999-0.99219h-2.3019v-2.196h2.4077q1.9711 0 3.0162-0.78052 1.0451-0.79375 1.0451-2.2754 0-1.5214-1.0848-2.3283-1.0716-0.82021-3.0824-0.82021-1.098 0-2.3548 0.23813-1.2568 0.23812-2.7649 0.74083v-2.3812q1.5214-0.42333 2.8443-0.635 1.3361-0.21166 2.5135-0.21166 3.0427 0 4.8154 1.3891 1.7727 1.3758 1.7727 3.7306 0 1.6404-0.93927 2.7781-0.93927 1.1245-2.6723 1.561z"/>
 </g>
</svg>
