<?xml version="1.0" encoding="UTF-8" standalone="no"?>
<svg id="svg2" xmlns:rdf="http://www.w3.org/1999/02/22-rdf-syntax-ns#" xmlns="http://www.w3.org/2000/svg" viewBox="216 118 411.247 357.33507" height="17.967cm" width="21.288cm" version="1.1" xmlns:cc="http://creativecommons.org/ns#" xmlns:dc="http://purl.org/dc/elements/1.1/">
 <metadata id="metadata100">
  <rdf:RDF>
   <cc:Work rdf:about="">
    <dc:format>image/svg+xml</dc:format>
    <dc:type rdf:resource="http://purl.org/dc/dcmitype/StillImage"/>
   </cc:Work>
  </rdf:RDF>
 </metadata>
 <g id="g4" transform="translate(-7.6784 -1)">
  <path id="rect6" fill="#fff" d="m340 220h300v100h-300z"/>
  <path id="rect8" d="m340 220h300v100h-300z" stroke="#bfbfbf" stroke-width="2" fill="none"/>
 </g>
 <g id="g10" transform="translate(-7.6784 -1)">
  <path id="rect12" fill="#fff" d="m220 120h100v300h-100z"/>
  <path id="rect14" d="m220 120h100v300h-100z" stroke="#bfbfbf" stroke-width="2" fill="none"/>
 </g>
 <g id="g16" transform="translate(-7.6784 -1)">
  <path id="ellipse18" fill="#fff" d="m300 170a30 30 0 0 1 -30 30 30 30 0 0 1 -30 -30 30 30 0 0 1 30 -30 30 30 0 0 1 30 30z"/>
  <path id="ellipse20" d="m300 170a30 30 0 0 1 -30 30 30 30 0 0 1 -30 -30 30 30 0 0 1 30 -30 30 30 0 0 1 30 30z" stroke="#000" stroke-width="2" fill="none"/>
 </g>
 <g id="text22">
  <path id="path60" style="" d="m263.3 170.93q-2.9501 0-4.0878 0.67469-1.1377 0.67468-1.1377 2.3019 0 1.2964 0.84666 2.0637 0.8599 0.75407 2.3283 0.75407 2.0241 0 3.2411-1.4288 1.2303-1.442 1.2303-3.8232v-0.54239h-2.4209zm4.8551-1.0054v8.4534h-2.4342v-2.249q-0.83344 1.3494-2.077 1.9976-1.2435 0.635-3.0427 0.635-2.2754 0-3.6248-1.27-1.3362-1.2832-1.3362-3.4264 0-2.5003 1.6669-3.7703 1.6801-1.27 5.0006-1.27h3.4131v-0.23812q0-1.6801-1.1112-2.5929-1.098-0.92604-3.0956-0.92604-1.27 0-2.4739 0.30427-1.2038 0.30427-2.3151 0.91281v-2.249q1.3362-0.51594 2.5929-0.76729 1.2568-0.26459 2.4474-0.26459 3.2147 0 4.8022 1.6669t1.5875 5.0535z"/>
 </g>
 <g id="g26" transform="translate(-7.6784 -1)">
  <path id="ellipse28" fill="#fff" d="m300 270a30 30 0 0 1 -30 30 30 30 0 0 1 -30 -30 30 30 0 0 1 30 -30 30 30 0 0 1 30 30z"/>
  <path id="ellipse30" d="m300 270a30 30 0 0 1 -30 30 30 30 0 0 1 -30 -30 30 30 0 0 1 30 -30 30 30 0 0 1 30 30z" stroke="#000" stroke-width="2" fill="none"/>
 </g>
 <g id="g32" transform="translate(-7.6784 -1)">
  <path id="rect34" fill="#fff" d="m420 240h200v60h-200z"/>
  <path id="rect36" d="m420 240h200v60h-200z" stroke="#000" stroke-width="2" fill="none"/>
 </g>
 <g id="text38">
  <path id="path67" style="" d="m266.91 270.98q0-2.6855-1.1112-4.2069-1.098-1.5346-3.0295-1.5346t-3.0427 1.5346q-1.098 1.5214-1.098 4.2069t1.098 4.2201q1.1112 1.5214 3.0427 1.5214 1.9314 0 3.0295-1.5214 1.1112-1.5346 1.1112-4.2201zm-8.2814-5.1726q0.76729-1.3229 1.9315-1.9579 1.1774-0.64823 2.8046-0.64823 2.6987 0 4.3788 2.1431 1.6933 2.1431 1.6933 5.6356t-1.6933 5.6356q-1.6801 2.1431-4.3788 2.1431-1.6272 0-2.8046-0.635-1.1642-0.64823-1.9315-1.9712v2.2225h-2.4474v-20.585h2.4474v8.0169z"/>
 </g>
 <g id="text42">
  <path id="path70" style="" d="m457.71 269.43v8.9429h-2.4342v-8.8635q0-2.1034-0.82021-3.1485t-2.4606-1.0451q-1.9711 0-3.1088 1.2568t-1.1377 3.4264v8.374h-2.4474v-20.585h2.4474v8.0698q0.87313-1.3361 2.0505-1.9976 1.1906-0.66146 2.7384-0.66146 2.5532 0 3.8629 1.5875 1.3097 1.5743 1.3097 4.6434z"/>
  <path id="path72" style="" d="m475.27 270.36v1.1906h-11.192q0.15875 2.5135 1.5081 3.8364 1.3626 1.3097 3.7835 1.3097 1.4023 0 2.712-0.34396 1.3229-0.34396 2.6194-1.0319v2.3019q-1.3097 0.55562-2.6855 0.84666-1.3758 0.29105-2.7914 0.29105-3.5454 0-5.6224-2.0638-2.0637-2.0638-2.0637-5.5827 0-3.638 1.9579-5.7679 1.9711-2.1431 5.3049-2.1431 2.9898 0 4.7228 1.9315 1.7462 1.9182 1.7462 5.2255zm-2.4342-0.71437q-0.0265-1.9976-1.1245-3.1882-1.0848-1.1906-2.884-1.1906-2.0373 0-3.2676 1.1509-1.2171 1.1509-1.4023 3.2411l8.6783-0.0132z"/>
  <path id="path74" style="" d="m479.26 257.79h2.4342v20.585h-2.4342v-20.585z"/>
  <path id="path76" style="" d="m486.78 257.79h2.4342v20.585h-2.4342v-20.585z"/>
  <path id="path78" style="" d="m500.03 265.26q-1.9579 0-3.0956 1.5346-1.1377 1.5214-1.1377 4.1804 0 2.6591 1.1245 4.1936 1.1377 1.5214 3.1088 1.5214 1.9447 0 3.0824-1.5346t1.1377-4.1804q0-2.6326-1.1377-4.1672-1.1377-1.5478-3.0824-1.5478zm0-2.0638q3.175 0 4.9874 2.0638t1.8124 5.715q0 3.638-1.8124 5.715-1.8124 2.0638-4.9874 2.0638-3.1882 0-5.0006-2.0638-1.7992-2.077-1.7992-5.715 0-3.6512 1.7992-5.715 1.8124-2.0638 5.0006-2.0638z"/>
  <path id="path80" style="" d="m517.73 263.56h2.5797l4.6302 12.435 4.6302-12.435h2.5797l-5.5562 14.817h-3.3073l-5.5562-14.817z"/>
  <path id="path82" style="" d="m535.51 263.56h2.4342v14.817h-2.4342v-14.817zm0-5.7679h2.4342v3.0824h-2.4342v-3.0824z"/>
  <path id="path84" style="" d="m543.03 257.79h2.4342v20.585h-2.4342v-20.585z"/>
  <path id="path86" style="" d="m557.27 270.93q-2.9501 0-4.0878 0.67469-1.1377 0.67468-1.1377 2.3019 0 1.2964 0.84667 2.0637 0.85989 0.75407 2.3283 0.75407 2.0241 0 3.2411-1.4288 1.2303-1.442 1.2303-3.8232v-0.54239h-2.4209zm4.8551-1.0054v8.4534h-2.4342v-2.249q-0.83344 1.3494-2.077 1.9976-1.2435 0.635-3.0427 0.635-2.2754 0-3.6248-1.27-1.3361-1.2832-1.3361-3.4264 0-2.5003 1.6669-3.7703 1.6801-1.27 5.0006-1.27h3.4131v-0.23812q0-1.6801-1.1112-2.5929-1.098-0.92604-3.0956-0.92604-1.27 0-2.4738 0.30427t-2.3151 0.91281v-2.249q1.3361-0.51594 2.5929-0.76729 1.2568-0.26459 2.4474-0.26459 3.2147 0 4.8022 1.6669t1.5875 5.0535zm-4.445-13.216h2.6326l-4.3127 4.9742h-2.0241l3.7042-4.9742z"/>
  <path id="path88" style="" d="m576.91 270.79q0-2.6458-1.098-4.101-1.0848-1.4552-3.0559-1.4552-1.9579 0-3.0559 1.4552-1.0848 1.4552-1.0848 4.101 0 2.6326 1.0848 4.0878 1.098 1.4552 3.0559 1.4552 1.9712 0 3.0559-1.4552 1.098-1.4552 1.098-4.0878zm2.4342 5.7414q0 3.7835-1.6801 5.6224-1.6801 1.8521-5.1461 1.8521-1.2832 0-2.4209-0.19844-1.1377-0.18521-2.2093-0.58208v-2.368q1.0716 0.58208 2.1167 0.8599 1.0451 0.27781 2.1299 0.27781 2.3945 0 3.5851-1.2568 1.1906-1.2435 1.1906-3.7703v-1.2038q-0.75406 1.3097-1.9315 1.9579-1.1774 0.64823-2.8178 0.64823-2.7252 0-4.3921-2.077t-1.6669-5.5033q0-3.4396 1.6669-5.5166t4.3921-2.077q1.6404 0 2.8178 0.64823t1.9315 1.9579v-2.249h2.4342v12.978z"/>
 </g>
 <g id="g46" transform="translate(-7.6784 -1)">
  <path id="ellipse48" fill="#fff" d="m300 370a30 30 0 0 1 -30 30 30 30 0 0 1 -30 -30 30 30 0 0 1 30 -30 30 30 0 0 1 30 30z"/>
  <path id="ellipse50" d="m300 370a30 30 0 0 1 -30 30 30 30 0 0 1 -30 -30 30 30 0 0 1 30 -30 30 30 0 0 1 30 30z" stroke="#000" stroke-width="2" fill="none"/>
 </g>
 <g id="text52">
  <path id="path93" style="" d="m268.08 364.13v2.2754q-1.0319-0.56885-2.077-0.84667-1.0319-0.29104-2.0902-0.29104-2.368 0-3.6777 1.5081-1.3097 1.4949-1.3097 4.2069t1.3097 4.2201q1.3097 1.4949 3.6777 1.4949 1.0583 0 2.0902-0.27781 1.0451-0.29105 2.077-0.8599v2.249q-1.0186 0.47625-2.1167 0.71437-1.0848 0.23813-2.3151 0.23813-3.347 0-5.3181-2.1034t-1.9711-5.6753q0-3.6248 1.9844-5.7018 1.9976-2.077 5.4636-2.077 1.1245 0 2.196 0.23813 1.0716 0.22489 2.077 0.68792z"/>
 </g>
 <g id="g56" stroke="#000" stroke-width="2" fill="none" transform="translate(-7.6784 -1)">
  <path id="line58" d="m293.8 189.84 68.957 57.465"/>
  <path id="polyline60" d="m353.6 246.17 10.883 2.561-4.481-10.243"/>
 </g>
 <g id="g62" stroke="#000" stroke-width="2" fill="none" transform="translate(-7.6784 -1)">
  <path id="line64" d="m301 270h53.521"/>
  <path id="polyline66" d="m346.76 275 10-5-10-5"/>
 </g>
 <g id="g68" stroke="#000" stroke-width="2" fill="none" transform="translate(-7.6784 -1)">
  <path id="line70" d="m293.8 350.16 68.957-57.465"/>
  <path id="polyline72" d="m360 301.51 4.481-10.243-10.883 2.561"/>
 </g>
 <g id="g74" transform="translate(-7.6784 -1)">
  <path id="ellipse76" fill="#fff" d="m420 270a30 30 0 0 1 -30 30 30 30 0 0 1 -30 -30 30 30 0 0 1 30 -30 30 30 0 0 1 30 30z"/>
  <path id="ellipse78" d="m420 270a30 30 0 0 1 -30 30 30 30 0 0 1 -30 -30 30 30 0 0 1 30 -30 30 30 0 0 1 30 30z" stroke="#000" stroke-width="2" fill="none"/>
 </g>
 <g id="text80">
  <path id="path104" style="" d="m384.69 267.73q1.9182 0.41011 2.9898 1.7066 1.0848 1.2965 1.0848 3.2015 0 2.9236-2.0108 4.5244-2.0108 1.6007-5.715 1.6007-1.2435 0-2.5665-0.25136-1.3097-0.23812-2.712-0.7276v-2.5797q1.1112 0.64823 2.4342 0.97896 1.3229 0.33073 2.7649 0.33073 2.5135 0 3.8232-0.99219 1.3229-0.99218 1.3229-2.884 0-1.7462-1.2303-2.7252-1.2171-0.99218-3.3999-0.99218h-2.3019v-2.196h2.4077q1.9712 0 3.0162-0.78052 1.0451-0.79375 1.0451-2.2754 0-1.5214-1.0848-2.3283-1.0716-0.8202-3.0824-0.8202-1.098 0-2.3548 0.23812-1.2568 0.23813-2.7649 0.74083v-2.3812q1.5214-0.42334 2.8443-0.635 1.3362-0.21167 2.5135-0.21167 3.0427 0 4.8154 1.3891 1.7727 1.3758 1.7727 3.7306 0 1.6404-0.93927 2.7781-0.93927 1.1245-2.6723 1.561z"/>
 </g>
 <g id="text84">
  <path id="path107" style="" d="m223.98 435.83h2.6546l3.3602 8.9605 3.3778-8.9605h2.6546v13.167h-1.7374v-11.562l-3.3955 9.0311h-1.7903l-3.3955-9.0311v11.562h-1.7286v-13.167z"/>
  <path id="path109" style="" d="m243.62 449.92q-0.68792 1.7639-1.3406 2.3019-0.65264 0.53799-1.7462 0.53799h-1.2964v-1.3582h0.9525q0.67027 0 1.0407-0.3175 0.37041-0.3175 0.82021-1.4993l0.29104-0.74083-3.9952-9.719h1.7198l3.0868 7.7258 3.0868-7.7258h1.7198l-4.3392 10.795z"/>
  <path id="path111" style="" d="m258.16 436.26v1.7374q-1.0142-0.48507-1.9138-0.7232-0.89959-0.23812-1.7374-0.23812-1.4552 0-2.249 0.56444-0.78493 0.56445-0.78493 1.6051 0 0.87312 0.52035 1.3229 0.52916 0.44098 1.9932 0.71438l1.076 0.22048q1.9932 0.37924 2.9369 1.3406 0.9525 0.9525 0.9525 2.5576 0 1.9138-1.2876 2.9016-1.2788 0.98777-3.7571 0.98777-0.93486 0-1.9932-0.21166-1.0495-0.21167-2.1784-0.62618v-1.8344q1.0848 0.60854 2.1255 0.91722t2.0461 0.30868q1.5258 0 2.3548-0.59973 0.82903-0.59972 0.82903-1.711 0-0.97013-0.59972-1.5169-0.5909-0.5468-1.9491-0.82021l-1.0848-0.21166q-1.9932-0.39688-2.884-1.2435-0.89076-0.84667-0.89076-2.3548 0-1.7462 1.2259-2.7517 1.2347-1.0054 3.3955-1.0054 0.92604 0 1.8874 0.16757 0.96132 0.16757 1.9667 0.50271z"/>
  <path id="path113" style="" d="m263.27 436.32v2.8046h3.3426v1.2612h-3.3426v5.3622q0 1.2083 0.32632 1.5522 0.33514 0.34396 1.3494 0.34396h1.6669v1.3582h-1.6669q-1.8785 0-2.5929-0.69674-0.71437-0.70555-0.71437-2.5576v-5.3622h-1.1906v-1.2612h1.1906v-2.8046h1.6316z"/>
  <path id="path115" style="" d="m274.47 440.64q-0.2734-0.15875-0.59972-0.22931-0.3175-0.0794-0.70555-0.0794-1.3758 0-2.1167 0.89958-0.73201 0.89076-0.73201 2.5664v5.2035h-1.6316v-9.8778h1.6316v1.5346q0.51153-0.89959 1.3317-1.3317 0.82021-0.44097 1.9932-0.44097 0.16757 0 0.37041 0.0265 0.20285 0.0176 0.44979 0.0617l0.009 1.6669z"/>
  <path id="path117" style="" d="m276.19 439.12h1.6228v9.8778h-1.6228v-9.8778zm0-3.8453h1.6228v2.0549h-1.6228v-2.0549z"/>
  <path id="path119" style="" d="m289.41 443.04v5.9619h-1.6228v-5.909q0-1.4023-0.54681-2.099-0.5468-0.69673-1.6404-0.69673-1.3141 0-2.0726 0.83784-0.75847 0.83785-0.75847 2.2842v5.5827h-1.6316v-9.8778h1.6316v1.5346q0.58208-0.89077 1.367-1.3317 0.79375-0.44097 1.8256-0.44097 1.7022 0 2.5753 1.0583 0.87313 1.0495 0.87313 3.0956z"/>
  <path id="path121" style="" d="m299.17 443.95q0-1.7639-0.73201-2.734-0.72319-0.97014-2.0373-0.97014-1.3053 0-2.0373 0.97014-0.72319 0.97014-0.72319 2.734 0 1.7551 0.72319 2.7252 0.73201 0.97014 2.0373 0.97014 1.3141 0 2.0373-0.97014 0.73201-0.97014 0.73201-2.7252zm1.6228 3.8276q0 2.5224-1.1201 3.7483-1.1201 1.2347-3.4308 1.2347-0.85549 0-1.614-0.13229-0.75847-0.12347-1.4728-0.38806v-1.5787q0.71437 0.38806 1.4111 0.57327 0.69673 0.1852 1.4199 0.1852 1.5963 0 2.3901-0.83784 0.79375-0.82903 0.79375-2.5135v-0.80257q-0.50271 0.87313-1.2876 1.3053-0.77 0.42-1.87 0.42-1.8168 0-2.9281-1.3846-1.1112-1.3846-1.1112-3.6689 0-2.293 1.1112-3.6777 1.1112-1.3846 2.9281-1.3846 1.0936 0 1.8785 0.43215 0.78493 0.43215 1.2876 1.3053v-1.4993h1.6228v8.6519z"/>
  <path id="path123" style="" d="m214.46 462.84q-1.3053 0-2.0638 1.0231-0.75847 1.0142-0.75847 2.7869t0.74965 2.7958q0.75847 1.0142 2.0726 1.0142 1.2964 0 2.0549-1.023 0.75848-1.023 0.75848-2.7869 0-1.7551-0.75848-2.7781-0.75847-1.0319-2.0549-1.0319zm0-1.3758q2.1167 0 3.3249 1.3758 1.2083 1.3758 1.2083 3.81 0 2.4253-1.2083 3.81-1.2083 1.3758-3.3249 1.3758-2.1255 0-3.3338-1.3758-1.1994-1.3846-1.1994-3.81 0-2.4342 1.1994-3.81 1.2083-1.3758 3.3338-1.3758z"/>
  <path id="path125" style="" d="m228.76 466.65q0-1.7904-0.74083-2.8046-0.73202-1.023-2.0196-1.023t-2.0285 1.023q-0.73202 1.0142-0.73202 2.8046 0 1.7903 0.73202 2.8134 0.74083 1.0142 2.0285 1.0142 1.2876 0 2.0196-1.0142 0.74083-1.0231 0.74083-2.8134zm-5.521-3.4484q0.51153-0.88194 1.2876-1.3053 0.78493-0.43215 1.8697-0.43215 1.7992 0 2.9192 1.4288 1.1289 1.4288 1.1289 3.7571t-1.1289 3.7571q-1.1201 1.4288-2.9192 1.4288-1.0848 0-1.8697-0.42334-0.77611-0.43215-1.2876-1.3141v1.4817h-1.6316v-13.723h1.6316v5.3446z"/>
  <path id="path127" style="" d="m233.14 461.7h1.6228v10.054q0 1.8874-0.72319 2.734-0.71437 0.84666-2.3107 0.84666h-0.61736v-1.3758h0.43215q0.92604 0 1.2612-0.43215 0.33514-0.42334 0.33514-1.7727v-10.054zm0-3.8453h1.6228v2.0549h-1.6228v-2.0549z"/>
  <path id="path129" style="" d="m246.6 466.23v0.79375h-7.4612q0.10584 1.6757 1.0054 2.5576 0.9084 0.87312 2.5224 0.87312 0.93486 0 1.808-0.2293 0.88194-0.22931 1.7462-0.68792v1.5346q-0.87313 0.37041-1.7904 0.56444-0.91722 0.19403-1.8609 0.19403-2.3636 0-3.7483-1.3758-1.3758-1.3758-1.3758-3.7218 0-2.4253 1.3053-3.8453 1.3141-1.4288 3.5366-1.4288 1.9932 0 3.1485 1.2876 1.1642 1.2788 1.1642 3.4837zm-1.6228-0.47625q-0.0176-1.3317-0.74965-2.1255-0.7232-0.79375-1.9226-0.79375-1.3582 0-2.1784 0.76729-0.81139 0.7673-0.93486 2.1608l5.7856-0.009z"/>
  <path id="path131" style="" d="m249.2 457.85h1.6316v8.1051l4.8419-4.2598h2.0726l-5.2388 4.6214 5.4592 5.2564h-2.1167l-5.0183-4.8242v4.8242h-1.6316v-13.723z"/>
  <path id="path133" style="" d="m261.34 458.9v2.8046h3.3426v1.2612h-3.3426v5.3622q0 1.2083 0.32632 1.5522 0.33514 0.34396 1.3494 0.34396h1.6669v1.3582h-1.6669q-1.8785 0-2.5929-0.69673-0.71438-0.70556-0.71438-2.5576v-5.3622h-1.1906v-1.2612h1.1906v-2.8046h1.6316z"/>
  <path id="path135" style="" d="m266.66 467.68v-5.9796h1.6228v5.9178q0 1.4023 0.54681 2.1078 0.5468 0.69674 1.6404 0.69674 1.3141 0 2.0726-0.83785 0.76729-0.83785 0.76729-2.2842v-5.6003h1.6228v9.8778h-1.6228v-1.5169q-0.5909 0.89958-1.3758 1.3406-0.77611 0.43216-1.808 0.43216-1.7022 0-2.5841-1.0583-0.88194-1.0583-0.88194-3.0956zm4.0834-6.2177z"/>
  <path id="path137" style="" d="m285.98 463.6q0.60854-1.0936 1.4552-1.614 0.84667-0.52035 1.9932-0.52035 1.5434 0 2.3812 1.0848 0.83785 1.076 0.83785 3.0692v5.9619h-1.6316v-5.909q0-1.4199-0.50271-2.1078-0.5027-0.68792-1.5346-0.68792-1.2612 0-1.9932 0.83785-0.73201 0.83784-0.73201 2.2842v5.5827h-1.6316v-5.909q0-1.4288-0.5027-2.1078-0.50271-0.68792-1.5522-0.68792-1.2435 0-1.9756 0.84667-0.73201 0.83784-0.73201 2.2754v5.5827h-1.6316v-9.8778h1.6316v1.5346q0.55562-0.9084 1.3317-1.3406 0.77611-0.43215 1.8433-0.43215 1.076 0 1.8256 0.54681 0.75847 0.5468 1.1201 1.5875z"/>
  <path id="path139" style="" d="m299.72 462.84q-1.3053 0-2.0638 1.0231-0.75847 1.0142-0.75847 2.7869t0.74965 2.7958q0.75847 1.0142 2.0726 1.0142 1.2964 0 2.0549-1.023 0.75847-1.023 0.75847-2.7869 0-1.7551-0.75847-2.7781-0.75847-1.0319-2.0549-1.0319zm0-1.3758q2.1167 0 3.3249 1.3758 1.2083 1.3758 1.2083 3.81 0 2.4253-1.2083 3.81-1.2083 1.3758-3.3249 1.3758-2.1255 0-3.3338-1.3758-1.1994-1.3846-1.1994-3.81 0-2.4342 1.1994-3.81 1.2083-1.3758 3.3338-1.3758z"/>
  <path id="path141" style="" d="m306.88 457.85h1.6316v8.1051l4.8419-4.2598h2.0726l-5.2388 4.6214 5.4592 5.2564h-2.1167l-5.0183-4.8242v4.8242h-1.6316v-13.723z"/>
 </g>
 <g id="text90">
  <path id="path144" style="" d="m440.22 336.26v1.7374q-1.0142-0.48507-1.9138-0.7232-0.89958-0.23812-1.7374-0.23812-1.4552 0-2.249 0.56444-0.78493 0.56445-0.78493 1.6051 0 0.87312 0.52034 1.3229 0.52917 0.44098 1.9932 0.71438l1.076 0.22048q1.9932 0.37924 2.9369 1.3406 0.9525 0.9525 0.9525 2.5576 0 1.9138-1.2876 2.9016-1.2788 0.98777-3.7571 0.98777-0.93486 0-1.9932-0.21166-1.0495-0.21167-2.1784-0.62618v-1.8344q1.0848 0.60854 2.1255 0.91722t2.0461 0.30868q1.5258 0 2.3548-0.59973 0.82903-0.59972 0.82903-1.711 0-0.97013-0.59973-1.5169-0.5909-0.5468-1.9491-0.82021l-1.0848-0.21166q-1.9932-0.39688-2.884-1.2435-0.89076-0.84667-0.89076-2.3548 0-1.7462 1.2259-2.7517 1.2347-1.0054 3.3955-1.0054 0.92604 0 1.8874 0.16757 0.96132 0.16757 1.9667 0.50271z"/>
  <path id="path146" style="" d="m445.32 336.32v2.8046h3.3426v1.2612h-3.3426v5.3622q0 1.2083 0.32632 1.5522 0.33514 0.34396 1.3494 0.34396h1.6669v1.3582h-1.6669q-1.8785 0-2.5929-0.69674-0.71438-0.70555-0.71438-2.5576v-5.3622h-1.1906v-1.2612h1.1906v-2.8046h1.6316z"/>
  <path id="path148" style="" d="m456.53 340.64q-0.2734-0.15875-0.59972-0.22931-0.3175-0.0794-0.70556-0.0794-1.3758 0-2.1167 0.89958-0.73201 0.89076-0.73201 2.5664v5.2035h-1.6316v-9.8778h1.6316v1.5346q0.51152-0.89959 1.3317-1.3317 0.82021-0.44097 1.9932-0.44097 0.16757 0 0.37042 0.0265 0.20285 0.0176 0.44979 0.0617l0.009 1.6669z"/>
  <path id="path150" style="" d="m458.25 339.12h1.6228v9.8778h-1.6228v-9.8778zm0-3.8453h1.6228v2.0549h-1.6228v-2.0549z"/>
  <path id="path152" style="" d="m471.47 343.04v5.9619h-1.6228v-5.909q0-1.4023-0.5468-2.099-0.54681-0.69673-1.6404-0.69673-1.3141 0-2.0726 0.83784-0.75847 0.83785-0.75847 2.2842v5.5827h-1.6316v-9.8778h1.6316v1.5346q0.58208-0.89077 1.367-1.3317 0.79375-0.44097 1.8256-0.44097 1.7022 0 2.5753 1.0583 0.87312 1.0495 0.87312 3.0956z"/>
  <path id="path154" style="" d="m481.23 343.95q0-1.7639-0.73202-2.734-0.72319-0.97014-2.0373-0.97014-1.3053 0-2.0373 0.97014-0.7232 0.97014-0.7232 2.734 0 1.7551 0.7232 2.7252 0.73201 0.97014 2.0373 0.97014 1.3141 0 2.0373-0.97014 0.73202-0.97014 0.73202-2.7252zm1.6228 3.8276q0 2.5224-1.1201 3.7483-1.1201 1.2347-3.4308 1.2347-0.85548 0-1.614-0.13229-0.75847-0.12347-1.4728-0.38806v-1.5787q0.71438 0.38806 1.4111 0.57327 0.69674 0.1852 1.4199 0.1852 1.5963 0 2.3901-0.83784 0.79375-0.82903 0.79375-2.5135v-0.80257q-0.50271 0.87313-1.2876 1.3053-0.77 0.42-1.87 0.42-1.8168 0-2.928-1.3846t-1.1112-3.6689q0-2.293 1.1112-3.6777 1.1112-1.3846 2.928-1.3846 1.0936 0 1.8785 0.43215 0.78493 0.43215 1.2876 1.3053v-1.4993h1.6228v8.6519z"/>
  <path id="path156" style="" d="m489.66 349-5.0271-13.167h1.8609l4.1716 11.086 4.1804-11.086h1.8521l-5.0182 13.167h-2.0197z"/>
  <path id="path158" style="" d="m501.62 344.03q-1.9667 0-2.7252 0.44979-0.75847 0.44979-0.75847 1.5346 0 0.86431 0.56444 1.3758 0.57327 0.50271 1.5522 0.50271 1.3494 0 2.1608-0.9525 0.82021-0.96132 0.82021-2.5488v-0.3616h-1.614zm3.2367-0.67028v5.6356h-1.6228v-1.4993q-0.55562 0.89958-1.3846 1.3317-0.82903 0.42333-2.0285 0.42333-1.5169 0-2.4165-0.84666-0.89077-0.85549-0.89077-2.2842 0-1.6669 1.1112-2.5135 1.1201-0.84667 3.3338-0.84667h2.2754v-0.15875q0-1.1201-0.74083-1.7286-0.73201-0.61736-2.0638-0.61736-0.84666 0-1.6492 0.20285-0.80257 0.20285-1.5434 0.60854v-1.4993q0.89076-0.34396 1.7286-0.51153 0.83784-0.17639 1.6316-0.17639 2.1431 0 3.2015 1.1112 1.0583 1.1112 1.0583 3.369z"/>
  <path id="path160" style="" d="m508.21 335.28h1.6228v13.723h-1.6228v-13.723z"/>
  <path id="path162" style="" d="m513.05 345.1v-5.9796h1.6228v5.9178q0 1.4023 0.5468 2.1078 0.54681 0.69673 1.6404 0.69673 1.3141 0 2.0726-0.83784 0.76729-0.83785 0.76729-2.2842v-5.6003h1.6228v9.8778h-1.6228v-1.5169q-0.5909 0.89958-1.3758 1.3406-0.77611 0.43215-1.808 0.43215-1.7022 0-2.5841-1.0583-0.88194-1.0583-0.88194-3.0956zm4.0834-6.2177z"/>
  <path id="path164" style="" d="m533.13 343.66v0.79375h-7.4612q0.10583 1.6757 1.0054 2.5576 0.9084 0.87312 2.5224 0.87312 0.93486 0 1.808-0.2293 0.88194-0.22931 1.7462-0.68792v1.5346q-0.87313 0.37042-1.7904 0.56445-0.91722 0.19402-1.8609 0.19402-2.3636 0-3.7483-1.3758-1.3758-1.3758-1.3758-3.7218 0-2.4253 1.3053-3.8453 1.3141-1.4288 3.5366-1.4288 1.9932 0 3.1485 1.2876 1.1642 1.2788 1.1642 3.4837zm-1.6228-0.47625q-0.0176-1.3317-0.74966-2.1255-0.72319-0.79375-1.9226-0.79375-1.3582 0-2.1784 0.76729-0.81139 0.76729-0.93486 2.1608l5.7856-0.009z"/>
  <path id="path166" style="" d="m409.87 362.84q-1.3053 0-2.0638 1.0231-0.75847 1.0142-0.75847 2.7869t0.74965 2.7958q0.75847 1.0142 2.0726 1.0142 1.2964 0 2.0549-1.023 0.75847-1.023 0.75847-2.7869 0-1.7551-0.75847-2.7781-0.75847-1.0319-2.0549-1.0319zm0-1.3758q2.1167 0 3.3249 1.3758 1.2083 1.3758 1.2083 3.81 0 2.4253-1.2083 3.81-1.2083 1.3758-3.3249 1.3758-2.1255 0-3.3338-1.3758-1.1994-1.3846-1.1994-3.81 0-2.4342 1.1994-3.81 1.2083-1.3758 3.3338-1.3758z"/>
  <path id="path168" style="" d="m424.18 366.65q0-1.7904-0.74084-2.8046-0.73201-1.023-2.0196-1.023t-2.0285 1.023q-0.73201 1.0142-0.73201 2.8046 0 1.7903 0.73201 2.8134 0.74084 1.0142 2.0285 1.0142 1.2876 0 2.0196-1.0142 0.74084-1.0231 0.74084-2.8134zm-5.521-3.4484q0.51153-0.88194 1.2876-1.3053 0.78493-0.43215 1.8697-0.43215 1.7992 0 2.9192 1.4288 1.1289 1.4288 1.1289 3.7571t-1.1289 3.7571q-1.1201 1.4288-2.9192 1.4288-1.0848 0-1.8697-0.42334-0.77611-0.43215-1.2876-1.3141v1.4817h-1.6316v-13.723h1.6316v5.3446z"/>
  <path id="path170" style="" d="m428.55 361.7h1.6228v10.054q0 1.8874-0.72319 2.734-0.71438 0.84666-2.3107 0.84666h-0.61736v-1.3758h0.43215q0.92604 0 1.2612-0.43215 0.33514-0.42334 0.33514-1.7727v-10.054zm0-3.8453h1.6228v2.0549h-1.6228v-2.0549z"/>
  <path id="path172" style="" d="m442.01 366.23v0.79375h-7.4612q0.10583 1.6757 1.0054 2.5576 0.9084 0.87312 2.5224 0.87312 0.93486 0 1.808-0.2293 0.88194-0.22931 1.7462-0.68792v1.5346q-0.87313 0.37041-1.7904 0.56444-0.91722 0.19403-1.8609 0.19403-2.3636 0-3.7483-1.3758-1.3758-1.3758-1.3758-3.7218 0-2.4253 1.3053-3.8453 1.3141-1.4288 3.5366-1.4288 1.9932 0 3.1485 1.2876 1.1642 1.2788 1.1642 3.4837zm-1.6228-0.47625q-0.0176-1.3317-0.74966-2.1255-0.72319-0.79375-1.9226-0.79375-1.3582 0-2.1784 0.76729-0.81139 0.7673-0.93486 2.1608l5.7856-0.009z"/>
  <path id="path174" style="" d="m444.61 357.85h1.6316v8.1051l4.8419-4.2598h2.0726l-5.2388 4.6214 5.4592 5.2564h-2.1167l-5.0183-4.8242v4.8242h-1.6316v-13.723z"/>
  <path id="path176" style="" d="m456.75 358.9v2.8046h3.3426v1.2612h-3.3426v5.3622q0 1.2083 0.32632 1.5522 0.33513 0.34396 1.3494 0.34396h1.6669v1.3582h-1.6669q-1.8785 0-2.5929-0.69673-0.71438-0.70556-0.71438-2.5576v-5.3622h-1.1906v-1.2612h1.1906v-2.8046h1.6316z"/>
  <path id="path178" style="" d="m462.07 367.68v-5.9796h1.6228v5.9178q0 1.4023 0.54681 2.1078 0.5468 0.69674 1.6404 0.69674 1.3141 0 2.0726-0.83785 0.76729-0.83785 0.76729-2.2842v-5.6003h1.6228v9.8778h-1.6228v-1.5169q-0.5909 0.89958-1.3758 1.3406-0.77611 0.43216-1.808 0.43216-1.7022 0-2.5841-1.0583-0.88194-1.0583-0.88194-3.0956zm4.0834-6.2177z"/>
  <path id="path180" style="" d="m481.4 363.6q0.60854-1.0936 1.4552-1.614 0.84667-0.52035 1.9932-0.52035 1.5434 0 2.3812 1.0848 0.83785 1.076 0.83785 3.0692v5.9619h-1.6316v-5.909q0-1.4199-0.50271-2.1078-0.5027-0.68792-1.5346-0.68792-1.2612 0-1.9932 0.83785-0.73201 0.83784-0.73201 2.2842v5.5827h-1.6316v-5.909q0-1.4288-0.50271-2.1078-0.5027-0.68792-1.5522-0.68792-1.2435 0-1.9756 0.84667-0.73201 0.83784-0.73201 2.2754v5.5827h-1.6316v-9.8778h1.6316v1.5346q0.55562-0.9084 1.3317-1.3406 0.77611-0.43215 1.8433-0.43215 1.076 0 1.8256 0.54681 0.75847 0.5468 1.1201 1.5875z"/>
  <path id="path182" style="" d="m500.96 357.87q-1.1818 2.0285-1.7551 4.0128-0.57326 1.9844-0.57326 4.0217t0.57326 4.0393q0.58208 1.9932 1.7551 4.0128h-1.4111q-1.3229-2.0726-1.9844-4.0746-0.65263-2.002-0.65263-3.9776 0-1.9667 0.65263-3.9599 0.65264-1.9932 1.9844-4.0746h1.4111z"/>
  <path id="path184" style="" d="m504.05 357.85h1.6316v8.1051l4.8419-4.2598h2.0726l-5.2387 4.6214 5.4592 5.2564h-2.1167l-5.0182-4.8242v4.8242h-1.6316v-13.723z"/>
  <path id="path186" style="" d="m517.78 362.84q-1.3053 0-2.0638 1.0231-0.75847 1.0142-0.75847 2.7869t0.74965 2.7958q0.75848 1.0142 2.0726 1.0142 1.2965 0 2.0549-1.023 0.75847-1.023 0.75847-2.7869 0-1.7551-0.75847-2.7781-0.75847-1.0319-2.0549-1.0319zm0-1.3758q2.1167 0 3.3249 1.3758 1.2083 1.3758 1.2083 3.81 0 2.4253-1.2083 3.81-1.2083 1.3758-3.3249 1.3758-2.1255 0-3.3337-1.3758-1.1994-1.3846-1.1994-3.81 0-2.4342 1.1994-3.81 1.2083-1.3758 3.3337-1.3758zm0.82903-3.5719h1.7903v1.7815h-1.7903v-1.7815zm-3.4484 0h1.7903v1.7815h-1.7903v-1.7815z"/>
  <path id="path188" style="" d="m524.29 361.7h7.7082v1.4817l-6.103 7.0996h6.103v1.2964h-7.9287v-1.4817l6.103-7.0996h-5.8826v-1.2964z"/>
  <path id="path190" style="" d="m538.32 362.84q-1.3053 0-2.0637 1.0231-0.75848 1.0142-0.75848 2.7869t0.74966 2.7958q0.75847 1.0142 2.0726 1.0142 1.2965 0 2.0549-1.023 0.75847-1.023 0.75847-2.7869 0-1.7551-0.75847-2.7781-0.75847-1.0319-2.0549-1.0319zm0-1.3758q2.1167 0 3.3249 1.3758 1.2083 1.3758 1.2083 3.81 0 2.4253-1.2083 3.81-1.2083 1.3758-3.3249 1.3758-2.1255 0-3.3337-1.3758-1.1994-1.3846-1.1994-3.81 0-2.4342 1.1994-3.81 1.2083-1.3758 3.3337-1.3758zm0.82903-3.5719h1.7903v1.7815h-1.7903v-1.7815zm-3.4484 0h1.7904v1.7815h-1.7904v-1.7815z"/>
  <path id="path192" style="" d="m551.83 361.99v1.5346q-0.68792-0.35278-1.4288-0.52917-0.74083-0.17638-1.5346-0.17638-1.2083 0-1.8168 0.37041-0.59972 0.37042-0.59972 1.1112 0 0.56444 0.43215 0.89076 0.43216 0.3175 1.7374 0.60854l0.55563 0.12348q1.7286 0.37041 2.4518 1.0495 0.73201 0.67028 0.73201 1.8785 0 1.3758-1.0936 2.1784-1.0848 0.80257-2.9898 0.80257-0.79375 0-1.658-0.15875-0.85548-0.14993-1.808-0.45861v-1.6757q0.89958 0.46743 1.7727 0.70556 0.87313 0.2293 1.7286 0.2293 1.1465 0 1.7639-0.38805 0.61736-0.39688 0.61736-1.1112 0-0.66146-0.44979-1.0142-0.44097-0.35278-1.9491-0.6791l-0.56444-0.13229q-1.5081-0.3175-2.1784-0.97014-0.67028-0.66146-0.67028-1.808 0-1.3935 0.98778-2.152 0.98778-0.75847 2.8046-0.75847 0.89958 0 1.6933 0.13229 0.79375 0.1323 1.464 0.39688z"/>
  <path id="path194" style="" d="m554.69 357.87h1.4111q1.3229 2.0814 1.9756 4.0746 0.66146 1.9932 0.66146 3.9599 0 1.9756-0.66146 3.9776-0.65264 2.002-1.9756 4.0746h-1.4111q1.173-2.0196 1.7462-4.0128 0.58209-2.002 0.58209-4.0393t-0.58209-4.0217q-0.57326-1.9844-1.7462-4.0128z"/>
 </g>
</svg>
