<?xml version="1.0" encoding="UTF-8" standalone="no"?>
<!-- Created with Inkscape (http://www.inkscape.org/) -->
<svg id="svg2" xmlns:rdf="http://www.w3.org/1999/02/22-rdf-syntax-ns#" xmlns="http://www.w3.org/2000/svg" height="486.05" width="708.66" version="1.1" xmlns:cc="http://creativecommons.org/ns#" xmlns:dc="http://purl.org/dc/elements/1.1/" viewBox="79 -1 382 256.70906">
 <metadata id="metadata66">
  <rdf:RDF>
   <cc:Work rdf:about="">
    <dc:format>image/svg+xml</dc:format>
    <dc:type rdf:resource="http://purl.org/dc/dcmitype/StillImage"/>
   </cc:Work>
  </rdf:RDF>
 </metadata>
 <g id="g4" transform="translate(0 -2.6455)">
  <path id="ellipse6" fill="#fff" d="m140 30c0 16.569-13.43 30-30 30-16.569 0-30-13.431-30-30s13.431-30 30-30 30 13.431 30 30z"/>
  <path id="ellipse8" d="m140 30c0 16.569-13.43 30-30 30-16.569 0-30-13.431-30-30s13.431-30 30-30 30 13.431 30 30z" stroke="#000" stroke-width="2" fill="none"/>
 </g>
 <g id="text10">
  <path id="path3014" style="" d="m110.98 29.282c-1.9667 0.000007-3.3293 0.2249-4.0878 0.67469-0.75848 0.4498-1.1377 1.2171-1.1377 2.3019 0 0.86431 0.28222 1.5522 0.84667 2.0637 0.57326 0.50271 1.3494 0.75406 2.3283 0.75406 1.3494 0.000001 2.4297-0.47625 3.2411-1.4287 0.8202-0.96131 1.2303-2.2357 1.2303-3.8232v-0.5424h-2.4209m4.8551-1.0054v8.4534h-2.4342v-2.249c-0.55563 0.89958-1.248 1.5654-2.077 1.9976-0.82904 0.42333-1.8433 0.635-3.0427 0.635-1.517-0.000001-2.7252-0.42333-3.6248-1.27-0.89076-0.85548-1.3361-1.9976-1.3361-3.4263 0-1.6669 0.55562-2.9236 1.6669-3.7703 1.1201-0.84666 2.7869-1.27 5.0006-1.27h3.4131v-0.23812c-0.00001-1.1201-0.37043-1.9844-1.1112-2.5929-0.73202-0.61735-1.7639-0.92603-3.0956-0.92604-0.84667 0.000013-1.6713 0.10144-2.4738 0.30427-0.80257 0.20286-1.5743 0.50713-2.3151 0.91281v-2.249c0.89076-0.34394 1.7551-0.59971 2.5929-0.76729 0.83784-0.17637 1.6536-0.26457 2.4474-0.26458 2.1431 0.000015 3.7438 0.55564 4.8022 1.6669 1.0583 1.1113 1.5875 2.7958 1.5875 5.0535"/>
 </g>
 <g id="g14" transform="translate(0 -2.6455)">
  <path id="ellipse16" fill="#fff" d="m140 130c0 16.569-13.431 30-30 30s-30-13.431-30-30 13.431-30 30-30 30 13.431 30 30z"/>
  <path id="ellipse18" d="m140 130c0 16.569-13.431 30-30 30s-30-13.431-30-30 13.431-30 30-30 30 13.431 30 30z" stroke="#000" stroke-width="2" fill="none"/>
 </g>
 <g id="g20" transform="translate(0 -2.6455)">
  <path id="rect22" fill="#fff" d="m260 100h200v60h-200z"/>
  <path id="rect24" d="m260 100h200v60h-200z" stroke="#000" stroke-width="2" fill="none"/>
 </g>
 <g id="text26">
  <path id="path3021" style="" d="m114.59 129.33c-0.00002-1.7903-0.37043-3.1926-1.1112-4.2069-0.73203-1.023-1.7418-1.5346-3.0295-1.5346-1.2876 0.00001-2.3019 0.51154-3.0427 1.5346-0.73202 1.0142-1.098 2.4165-1.098 4.2069-0.00001 1.7904 0.366 3.197 1.098 4.2201 0.74082 1.0142 1.7551 1.5214 3.0427 1.5214s2.2974-0.50712 3.0295-1.5214c0.74082-1.023 1.1112-2.4298 1.1112-4.2201m-8.2814-5.1726c0.51152-0.88193 1.1553-1.5346 1.9314-1.9579 0.78492-0.43214 1.7198-0.64822 2.8046-0.64823 1.7992 0.00001 3.2588 0.71439 4.3788 2.1431 1.1289 1.4288 1.6933 3.3073 1.6933 5.6356-0.00001 2.3283-0.56446 4.2069-1.6933 5.6356-1.1201 1.4287-2.5797 2.1431-4.3788 2.1431-1.0848 0-2.0197-0.21167-2.8046-0.635-0.77611-0.43215-1.4199-1.0892-1.9314-1.9711v2.2225h-2.4474v-20.585h2.4474v8.0169"/>
 </g>
 <g id="text30">
  <path id="path3024" style="" d="m305.39 127.79v8.9429h-2.4342v-8.8635c-0.00001-1.4023-0.27341-2.4518-0.8202-3.1485-0.54682-0.69672-1.367-1.0451-2.4606-1.0451-1.3141 0.00001-2.3504 0.41894-3.1088 1.2568-0.75847 0.83786-1.1377 1.98-1.1377 3.4264v8.374h-2.4474v-20.585h2.4474v8.0698c0.58207-0.89075 1.2656-1.5566 2.0505-1.9976 0.79374-0.44095 1.7066-0.66144 2.7384-0.66145 1.7021 0.00001 2.9898 0.52918 3.8629 1.5875 0.87311 1.0495 1.3097 2.5973 1.3097 4.6434"/>
  <path id="path3026" style="" d="m322.95 128.71v1.1906h-11.192c0.10583 1.6757 0.60853 2.9545 1.5081 3.8364 0.9084 0.87313 2.1696 1.3097 3.7835 1.3097 0.93485 0 1.8388-0.11465 2.712-0.34396 0.88193-0.2293 1.7551-0.57326 2.6194-1.0319v2.3019c-0.87314 0.37042-1.7683 0.65264-2.6855 0.84667-0.91723 0.19402-1.8477 0.29104-2.7914 0.29104-2.3636 0-4.2377-0.68792-5.6224-2.0638-1.3758-1.3758-2.0638-3.2367-2.0638-5.5827 0-2.4253 0.65264-4.348 1.9579-5.7679 1.3141-1.4287 3.0824-2.1431 5.3049-2.1431 1.9932 0.00001 3.5674 0.64383 4.7228 1.9314 1.1642 1.2788 1.7462 3.0207 1.7462 5.2255m-2.4342-0.71438c-0.0177-1.3317-0.39248-2.3945-1.1245-3.1882-0.72321-0.79374-1.6845-1.1906-2.884-1.1906-1.3582 0.00002-2.4474 0.38366-3.2676 1.1509-0.81139 0.7673-1.2788 1.8477-1.4023 3.2411l8.6783-0.0132"/>
  <path id="path3028" style="" d="m326.94 116.14h2.4342v20.585h-2.4342v-20.585"/>
  <path id="path3030" style="" d="m334.45 116.14h2.4342v20.585h-2.4342v-20.585"/>
  <path id="path3032" style="" d="m347.71 123.62c-1.3053 0.00002-2.3372 0.51154-3.0956 1.5346-0.75848 1.0142-1.1377 2.4077-1.1377 4.1804s0.37482 3.1706 1.1245 4.1936c0.75846 1.0142 1.7948 1.5214 3.1088 1.5214 1.2964 0 2.3239-0.51152 3.0824-1.5346 0.75846-1.023 1.1377-2.4165 1.1377-4.1804-0.00001-1.7551-0.37925-3.1441-1.1377-4.1672-0.75848-1.0319-1.7859-1.5478-3.0824-1.5478m0-2.0637c2.1166 0.00001 3.7791 0.68793 4.9874 2.0637 1.2082 1.3758 1.8124 3.2808 1.8124 5.715-0.00001 2.4254-0.60414 4.3303-1.8124 5.715-1.2083 1.3758-2.8707 2.0638-4.9874 2.0638-2.1255 0-3.7924-0.68792-5.0006-2.0638-1.1994-1.3846-1.7992-3.2896-1.7992-5.715-0.00001-2.4342 0.59972-4.3392 1.7992-5.715 1.2083-1.3758 2.8751-2.0637 5.0006-2.0637"/>
  <path id="path3034" style="" d="m365.41 121.91h2.5797l4.6302 12.435 4.6302-12.435h2.5797l-5.5562 14.817h-3.3073l-5.5562-14.817"/>
  <path id="path3036" style="" d="m383.19 121.91h2.4342v14.817h-2.4342v-14.817m0-5.7679h2.4342v3.0824h-2.4342v-3.0824"/>
  <path id="path3038" style="" d="m390.7 116.14h2.4342v20.585h-2.4342v-20.585"/>
  <path id="path3040" style="" d="m404.95 129.28c-1.9667 0.00001-3.3293 0.2249-4.0878 0.67469-0.75848 0.4498-1.1377 1.2171-1.1377 2.3019-0.00001 0.86431 0.28222 1.5522 0.84666 2.0638 0.57326 0.50271 1.3494 0.75406 2.3283 0.75406 1.3494 0 2.4298-0.47625 3.2412-1.4288 0.82019-0.96131 1.2303-2.2357 1.2303-3.8232v-0.5424h-2.4209m4.8551-1.0054v8.4534h-2.4342v-2.249c-0.55564 0.89958-1.248 1.5654-2.077 1.9976-0.82904 0.42333-1.8433 0.635-3.0427 0.635-1.517 0-2.7252-0.42333-3.6248-1.27-0.89077-0.85548-1.3362-1.9976-1.3362-3.4264 0-1.6669 0.55563-2.9236 1.6669-3.7703 1.1201-0.84665 2.7869-1.27 5.0006-1.27h3.4131v-0.23812c-0.00001-1.1201-0.37043-1.9844-1.1112-2.5929-0.73202-0.61735-1.7639-0.92603-3.0956-0.92605-0.84667 0.00002-1.6713 0.10144-2.4738 0.30428-0.80258 0.20285-1.5743 0.50712-2.3151 0.91281v-2.249c0.89076-0.34394 1.7551-0.59971 2.5929-0.76729 0.83784-0.17637 1.6536-0.26457 2.4474-0.26458 2.1431 0.00001 3.7438 0.55564 4.8022 1.6669 1.0583 1.1113 1.5875 2.7958 1.5875 5.0535m-4.445-13.216h2.6326l-4.3127 4.9742h-2.0241l3.7042-4.9742"/>
  <path id="path3042" style="" d="m424.58 129.15c-0.00001-1.7639-0.36602-3.1309-1.098-4.101-0.7232-0.97012-1.7418-1.4552-3.0559-1.4552-1.3053 0.00001-2.3239 0.48508-3.0559 1.4552-0.7232 0.97015-1.0848 2.3372-1.0848 4.101-0.00001 1.7551 0.36159 3.1177 1.0848 4.0878 0.732 0.97014 1.7506 1.4552 3.0559 1.4552 1.3141 0.00001 2.3327-0.48506 3.0559-1.4552 0.732-0.97014 1.098-2.3327 1.098-4.0878m2.4342 5.7414c-0.00002 2.5224-0.56005 4.3965-1.6801 5.6224-1.1201 1.2347-2.8354 1.8521-5.1461 1.8521-0.8555 0-1.6625-0.0661-2.4209-0.19844-0.75848-0.12347-1.4949-0.3175-2.2093-0.58208v-2.368c0.71437 0.38806 1.4199 0.67469 2.1167 0.8599 0.69673 0.1852 1.4067 0.27781 2.1299 0.27781 1.5963 0 2.7913-0.41893 3.5851-1.2568 0.79374-0.82903 1.1906-2.0858 1.1906-3.7703v-1.2038c-0.50272 0.87313-1.1465 1.5258-1.9314 1.9579-0.78494 0.43216-1.7242 0.64823-2.8178 0.64823-1.8168 0-3.2808-0.69232-4.3921-2.077-1.1112-1.3846-1.6669-3.2191-1.6669-5.5033 0-2.293 0.55562-4.1319 1.6669-5.5166 1.1112-1.3846 2.5753-2.077 4.3921-2.077 1.0936 0.00001 2.0329 0.21609 2.8178 0.64823 0.78492 0.43216 1.4287 1.0848 1.9314 1.9579v-2.249h2.4342v12.978"/>
 </g>
 <g id="g34" transform="translate(0 -2.6455)">
  <path id="ellipse36" fill="#fff" d="m140 230c0 16.569-13.431 30-30 30s-30-13.431-30-30 13.431-30 30-30 30 13.431 30 30z"/>
  <path id="ellipse38" d="m140 230c0 16.569-13.431 30-30 30s-30-13.431-30-30 13.431-30 30-30 30 13.431 30 30z" stroke="#000" stroke-width="2" fill="none"/>
 </g>
 <g id="text40">
  <path id="path3047" style="" d="m115.75 222.48v2.2754c-0.68793-0.37922-1.3802-0.66144-2.077-0.84666-0.68792-0.19402-1.3847-0.29103-2.0902-0.29105-1.5787 0.00002-2.8046 0.50273-3.6777 1.5081-0.87312 0.9966-1.3097 2.3989-1.3097 4.2069-0.00001 1.808 0.43656 3.2147 1.3097 4.2201 0.87312 0.99659 2.099 1.4949 3.6777 1.4949 0.70554 0 1.4023-0.0926 2.0902-0.27781 0.69673-0.19403 1.389-0.48066 2.077-0.8599v2.249c-0.67911 0.3175-1.3847 0.55562-2.1167 0.71437-0.72321 0.15875-1.4949 0.23813-2.3151 0.23813-2.2313 0-4.004-0.70115-5.3181-2.1034-1.3141-1.4023-1.9712-3.294-1.9712-5.6753 0-2.4165 0.66146-4.3171 1.9844-5.7018 1.3317-1.3846 3.1529-2.077 5.4636-2.077 0.74965 0.00001 1.4817 0.0794 2.196 0.23812 0.71437 0.14995 1.4067 0.37925 2.077 0.68792"/>
 </g>
 <g id="g44" stroke="#000" stroke-width="2" fill="none" transform="translate(0 -2.6455)">
  <path id="line46" d="m137.34 44.58 118.71 63.32"/>
  <path id="polyline48" d="m246.85 108.65 11.176 0.294-6.471-9.1179"/>
 </g>
 <g id="g50" stroke="#000" stroke-width="2" fill="none" transform="translate(0 -2.6455)">
  <path id="line52" d="m140.88 130h113.66"/>
  <path id="polyline54" d="m246.78 135 10-5-10-5"/>
 </g>
 <g id="g56" stroke="#000" stroke-width="2" fill="none" transform="translate(0 -2.6455)">
  <path id="line58" d="m137.34 215.42 118.71-63.32"/>
  <path id="polyline60" d="m251.56 160.17 6.471-9.118-11.176 0.294"/>
 </g>
</svg>
